<?xml version="1.0" encoding="UTF-8"?><svg id="Layer_2" xmlns="http://www.w3.org/2000/svg" viewBox="0 0 146.7351 105.6471"><g id="Components"><g id="_2cd1744b-734b-47ef-9eb9-064d0ad46784_1"><path d="M.0022,62.887C.0022,76.377,10.9324,87.3069,24.4221,87.3069h47.2402v-29.86H.0022v5.4401Z" style="fill:#f9b800;"/><path d="M75.072,57.4469v29.86h47.2402c13.4897,0,24.4199-10.9299,24.4199-24.4199v-5.4401h-71.6602Z" style="fill:#f9b800;"/><polygon points="71.6653 90.7137 60.3816 90.7137 24.5833 90.7137 24.5833 105.6471 60.3816 105.6471 71.6653 105.6471 121.9426 105.6471 121.9426 90.7137 71.6653 90.7137" style="fill:#e50a34;"/><polygon points="139.8191 39.104 139.8191 33.2869 126.8884 33.2869 126.8884 39.104 19.8464 39.104 19.8464 33.2869 6.916 33.2869 6.916 39.104 0 39.104 0 54.0374 146.7351 54.0374 146.7351 39.104 139.8191 39.104" style="fill:#009bd8;"/><path d="M92.0762,5.8326h-2.1306V0h-12.9304v5.8326h-7.5056V0h-12.9307v5.8326h-2.1289c-15.4644,0-28.1831,11.7521-29.7124,26.8129-.051.5021-.0896,1.0078-.1152,1.5168-.0259.509-.0391,1.0215-.0391,1.5369h0s97.3594.0001,97.3594.0001h0c0-16.495-13.3716-29.8667-29.8665-29.8667Z" style="fill:#074999;"/></g></g></svg>